<svg id="fe93dd6d-667d-4470-86ca-62835772386a" data-name="Capa 1" xmlns="http://www.w3.org/2000/svg" viewBox="0 0 262.99 97.56"><title>prima-logo-blanco</title><path d="M90.94,77.39a7.13,7.13,0,0,1,.49,8.46C88.65,90.14,82.15,95,77.85,97s-7.78-1.31-9.31-4.1c-.09.14,8.19-3.58,11.84-9.23,3.39-5.16,3.68-12.65.51-14.82h0a45.69,45.69,0,0,1,5.46,3.94,40.77,40.77,0,0,1,4.61,4.64" style="fill:#fff"/><path d="M7.56,80.35H14l-1.07,6.71c-.57,3.54-3.17,3.73-6.7,3.73C1.63,90.79,0,89.08,0,85.27a23.22,23.22,0,0,1,.34-3.62c1-6.43,2.93-9.14,8.79-9.14a25.14,25.14,0,0,1,5.68.58l-.87,3.24A30.94,30.94,0,0,0,9.2,76C5.51,76,5,78.38,4.5,81.65a19.33,19.33,0,0,0-.29,2.78c0,1.78.66,2.88,3.18,2.88,1.57,0,1.85-.46,2-1.54l.34-2.17H7Z" style="fill:#fff"/><path d="M19,90.61H15.17l1.56-9.84c.15-1,.32-1.77.54-2.69A12.1,12.1,0,0,1,23,76.74a9.59,9.59,0,0,1,1.46.08L23.67,80c-.26,0-.61,0-.91,0a5.1,5.1,0,0,0-2.05.39c-.15.55-.27,1.22-.37,1.83Z" style="fill:#fff"/><path d="M29.81,76.92,28.5,85.27a5.13,5.13,0,0,0-.1,1c0,1,.44,1.38,1.86,1.38a5.08,5.08,0,0,0,1.67-.27c.15-.55.28-1.22.38-1.83l1.36-8.59H37.5l-1.56,9.84c-.15,1-.31,1.77-.54,2.69a13.15,13.15,0,0,1-6.14,1.34c-3.87,0-4.84-1.33-4.84-3.4a11.08,11.08,0,0,1,.18-1.82L26,76.92Z" style="fill:#fff"/><path d="M47.59,83.77A11.25,11.25,0,0,0,47.78,82c0-1.22-.43-2.16-2.15-2.16a5.36,5.36,0,0,0-1.74.26A17.08,17.08,0,0,0,43.5,82l-.86,5.47a5.16,5.16,0,0,0,1.44.21c2.8,0,3.17-1.68,3.51-3.87M41.34,95.65H37.48l2.35-14.88c.16-1,.31-1.77.55-2.69a12.1,12.1,0,0,1,5.74-1.35c3.78,0,5.57,1.14,5.57,4.62a16.18,16.18,0,0,1-.22,2.42c-.85,5.33-3,7-7.2,7a11.74,11.74,0,0,1-2.13-.21Z" style="fill:#fff"/><path d="M58.65,87.59c1.79,0,2.36-.83,2.84-3.83a14.05,14.05,0,0,0,.21-2c0-1.36-.49-1.79-1.78-1.79-1.77,0-2.34.78-2.82,3.83a12.67,12.67,0,0,0-.22,2.08c0,1.35.5,1.75,1.77,1.75m-5.41-3.83c.8-5.09,2.72-7,7.16-7,3.64,0,5.16,1.32,5.16,4.55a15.55,15.55,0,0,1-.22,2.48c-.8,5.08-2.71,7-7.17,7-3.63,0-5.16-1.28-5.16-4.53a16,16,0,0,1,.23-2.5" style="fill:#fff"/><path d="M104,90.79c-4.61,0-6.24-1.71-6.24-5.51a23.34,23.34,0,0,1,.34-3.63c1-6.37,2.93-9.14,8.8-9.14a16.48,16.48,0,0,1,4.68.6l-.89,3.27a22.21,22.21,0,0,0-3.73-.33c-3.69,0-4.19,2.37-4.69,5.6a19,19,0,0,0-.3,2.75c0,1.75.66,2.86,3.21,2.86a21.85,21.85,0,0,0,3.84-.34l-.15,3.29a18.84,18.84,0,0,1-4.87.58" style="fill:#fff"/><path d="M114.43,90.61h-3.82l1.55-9.84c.16-1,.33-1.77.55-2.69a12.09,12.09,0,0,1,5.74-1.34,9.66,9.66,0,0,1,1.47.08L119.11,80c-.26,0-.61,0-.91,0a5,5,0,0,0-2,.39c-.15.55-.27,1.22-.37,1.83Z" style="fill:#fff"/><path d="M128.54,75.3h-2.92l3-4.18h3.82Zm-3,7.48c.77,0,1.91-.14,2.57-.23a3.48,3.48,0,0,0,.1-.44,4.74,4.74,0,0,0,.06-.71c0-1.05-.51-1.61-1.78-1.61-2.08,0-2.57,1.3-2.85,3.08Zm1.44-6c3.9,0,5.07,1.65,5.07,4.4a15.13,15.13,0,0,1-.23,2.47c-.06.38-.14.79-.23,1.18a56.26,56.26,0,0,1-6.2.68l-2.07.12c0,.14,0,.27,0,.39,0,1.3.82,1.64,2.44,1.64a38.21,38.21,0,0,0,4.92-.37l-.16,3a34.11,34.11,0,0,1-6,.55c-3.7,0-4.9-1.91-4.9-4.76a14.34,14.34,0,0,1,.2-2.27c.79-5,2.67-7,7.2-7" style="fill:#fff"/><path d="M137.44,83.76a12.43,12.43,0,0,0-.19,1.76c0,1.21.43,2.15,2.16,2.15a5.5,5.5,0,0,0,1.75-.27c.13-.55.26-1.22.36-1.83l.86-5.48a5.41,5.41,0,0,0-1.42-.21c-2.81,0-3.17,1.68-3.52,3.88m6.29-12.13h3.87l-2.4,15.13c-.16,1-.32,1.77-.54,2.69a12.24,12.24,0,0,1-5.75,1.34c-3.77,0-5.56-1.13-5.56-4.61a14.86,14.86,0,0,1,.22-2.42c.84-5.34,3-7,7.19-7a11.46,11.46,0,0,1,2.12.21Z" style="fill:#fff"/><path d="M154.37,73.54c-.23,1.52-.87,2.1-2.55,2.1-1.41,0-1.95-.4-1.95-1.43a4.16,4.16,0,0,1,.06-.67c.24-1.51.89-2.1,2.55-2.1,1.41,0,2,.41,2,1.45a4.26,4.26,0,0,1-.07.65m-4.69,3.38h3.9l-2.17,13.69h-3.89Z" style="fill:#fff"/><path d="M161.79,73.05l-.62,3.87h2.6l-.48,3h-2.6l-1,6.4a2,2,0,0,0,0,.4c0,.68.35,1,1.19,1,.4,0,.82,0,1.26,0l-.15,2.79a14.88,14.88,0,0,1-2.63.28c-2.52,0-3.64-1-3.64-2.93a5.79,5.79,0,0,1,.1-1L156.85,80h-2.1l.48-3h2.11l.5-3.23Z" style="fill:#fff"/><path d="M169.6,87.59c1.78,0,2.36-.83,2.83-3.83a13,13,0,0,0,.22-2c0-1.36-.5-1.79-1.78-1.79-1.78,0-2.34.78-2.83,3.83a13.66,13.66,0,0,0-.21,2.08c0,1.35.49,1.75,1.77,1.75m-5.42-3.83c.81-5.09,2.72-7,7.17-7,3.64,0,5.16,1.32,5.16,4.55a16.81,16.81,0,0,1-.22,2.48c-.81,5.08-2.72,7-7.18,7-3.62,0-5.15-1.28-5.15-4.53a17.17,17.17,0,0,1,.22-2.5" style="fill:#fff"/><path d="M81.83,81c1.94-4.73,2-10.84-1.39-12.46-2.83-1.32-5.42,1.51-6.28,2.61a21.5,21.5,0,0,0-1.87,3.11A30.57,30.57,0,0,1,81.83,81" style="fill:#fff"/><path d="M11.63,20.72h2c4.22,0,8.37,0,8.37-5.46,0-5.64-3.86-5.7-8.37-5.7h-2ZM0,.18H17.81c9.61,0,16.25,4.45,16.25,14.72,0,10.56-5.69,15.19-15.84,15.19H11.63V44.93H0Z" style="fill:#fff"/><path d="M50.32,20.24h1.13c3.8,0,8.07-.71,8.07-5.58s-4.27-5.58-8.07-5.58H50.32ZM75.9,44.93H61.42l-11-17.21h-.12V44.93H38.69V.18H56.08C64.92.18,71.63,4.4,71.63,14c0,6.17-3.44,11.51-9.79,12.64Z" style="fill:#fff"/><rect x="80.47" y="0.18" width="11.63" height="44.75" style="fill:#fff"/><polygon points="104.74 0.18 116.19 0.18 125.27 24.1 134.88 0.18 146.46 0.18 153.22 44.93 141.59 44.93 138.33 19.17 138.21 19.17 127.47 44.93 122.84 44.93 112.57 19.17 112.45 19.17 108.71 44.93 97.14 44.93 104.74 0.18" style="fill:#fff"/><path d="M179.27,14h-.12l-4.8,14.24H184Zm-8.13,23.14-3.08,7.78H155.71L172.92.18h12.7l16.85,44.75h-12.4l-2.9-7.78Z" style="fill:#fff"/><path d="M215.24,7h-.06l-2.42,7.17h4.87Zm-4.09,11.65-1.55,3.91h-6.21L212.05,0h6.39l8.48,22.52h-6.24l-1.46-3.91Z" style="fill:#fff"/><polygon points="235.25 4.96 235.25 8.72 241.67 8.72 241.67 13.68 235.25 13.68 235.25 22.52 229.4 22.52 229.4 0 242.33 0 242.33 4.96 235.25 4.96" style="fill:#fff"/><path d="M251.7,10.33h1c2.12,0,4.21,0,4.21-2.74S255,4.72,252.69,4.72h-1ZM245.85,0h9C259.65,0,263,2.24,263,7.41s-2.86,7.64-8,7.64H251.7v7.47h-5.86Z" style="fill:#fff"/></svg>